PathFileType	4	(X/Y/Z)	D:\TRACE\spotREDO_2-26-24\spot_Both_Motion_1_8-v60.trc
DataRate	CameraRate	NumFrames	NumMarkers	Units	OrigDataRate	OrigDataStartFrame	OrigNumFrames
100.00	100.00	      31	9	mm	100.00	6126	      7000
Frame#	Time	front left toe			Front right toe			aft left toe			aft right toe			Arm			FL body			FR body			AL Body			AR Body			
		X1	Y1	Z1	X2	Y2	Z2	X3	Y3	Z3	X4	Y4	Z4	X5	Y5	Z5	X6	Y6	Z6	X7	Y7	Z7	X8	Y8	Z8	X9	Y9	Z9	

6126	61.250	-426.68195	-5.38562	-601.80359	-49.27710	-5.24726	-431.44080	-669.82849	15.65098	-15.26607	-319.47034	20.70619	81.79644	-85.74591	691.67963	-828.44623	-235.07970	555.52606	-585.74078	-97.56516	560.26208	-511.48956	-659.50500	565.13580	190.32037	-536.39581	570.48004	258.88290	
6127	61.260	-427.48560	-5.19551	-601.75525	-50.04306	-5.07970	-431.12128	-670.84290	15.96560	-15.22576	-319.98923	20.63415	81.79881	-85.70002	691.35187	-827.51703	-234.44112	555.80908	-585.62427	-96.88682	560.27319	-510.95731	-658.65808	564.85126	191.01981	-535.56409	570.35150	259.53552	
6128	61.270	-428.41983	-4.73653	-601.82324	-51.27314	-5.69897	-431.13452	-671.82471	16.09270	-15.24128	-321.34369	20.34250	81.77935	-85.65669	690.82434	-826.44763	-233.65176	556.08606	-585.39154	-96.27704	560.26971	-510.59091	-658.13031	564.80139	191.44113	-534.24396	569.76721	260.03030	
6129	61.280	-428.88254	-4.50283	-601.83484	-52.10556	-5.86129	-431.01422	-672.77991	16.28970	-15.33024	-322.23563	20.15261	81.90467	-85.95290	690.53448	-825.67334	-232.84866	555.99115	-584.72107	-95.19221	560.14661	-509.69196	-657.37897	564.53412	191.94493	-534.25732	570.00116	260.65436	
6130	61.290	-429.96613	-3.64522	-601.61096	-52.80280	-6.15364	-430.95975	-673.58752	16.24657	-15.35787	-322.51508	20.10233	82.19598	-86.24059	689.80078	-824.93018	-231.66318	555.71405	-583.72931	-94.27120	559.91119	-508.91437	-656.95929	564.39008	192.52377	-533.92804	569.80255	261.15253	
6131	61.300	-430.10284	-4.08461	-601.87616	-53.51283	-6.27600	-430.91431	-674.26190	16.23148	-15.22267	-323.93008	19.78020	82.17442	-86.42411	689.51971	-824.26880	-230.43756	555.51398	-582.93402	-93.07906	559.73840	-507.87573	-656.42188	564.21875	192.95634	-533.84686	569.63605	261.69510	
6132	61.310	-430.84225	-3.79012	-601.91571	-54.63709	-6.60378	-430.90253	-675.40131	16.23537	-15.14561	-324.84662	19.80617	82.12065	-87.01907	689.12201	-823.59949	-229.78496	555.72931	-582.44800	-91.98206	559.72949	-506.88437	-656.11139	564.11987	193.35780	-533.95703	569.70624	261.79041	
6133	61.320	-431.55307	-3.58841	-601.91089	-55.38965	-6.23644	-430.32614	-676.08099	16.49149	-15.30133	-325.64603	19.59136	82.15488	-87.89368	688.83777	-823.24268	-228.34145	554.86603	-580.77136	-91.14284	559.62573	-506.12344	-655.68811	564.07635	193.84143	-533.23358	569.70288	262.68094	
6134	61.330	-432.37152	-3.16271	-601.90900	-56.09786	-6.45091	-430.05484	-677.21997	16.68566	-15.37006	-326.92706	19.38443	82.12003	-88.91196	688.78253	-823.08966	-227.54279	555.26666	-580.58667	-90.23412	559.46643	-504.93521	-655.26440	564.03900	194.46118	-532.17725	569.48779	263.48895	
6135	61.340	-432.85382	-3.19338	-601.84613	-56.54463	-6.41745	-429.86578	-678.01245	16.62090	-15.27981	-327.67874	19.23705	82.36997	-89.85261	688.73853	-822.85608	-226.03334	554.98853	-579.40765	-89.07449	559.30902	-503.88208	-654.70203	563.95752	195.04338	-531.93286	569.38995	264.17731	
6136	61.350	-433.71384	-3.00087	-601.75067	-58.25785	-6.73720	-430.22455	-678.62604	16.59642	-15.23763	-328.39935	19.12654	82.60187	-90.78574	688.62885	-822.53033	-225.48161	554.77264	-578.48566	-88.23275	559.30835	-502.93170	-654.31891	563.78900	195.55138	-531.55090	569.32605	264.82635	
6137	61.360	-434.44141	-2.66319	-601.72186	-58.98689	-6.86796	-429.97284	-679.66351	16.87601	-15.14802	-329.19470	19.10176	82.60475	-91.88884	688.48059	-822.59082	-224.29720	554.38080	-577.34918	-87.37222	559.30499	-502.08701	-653.79077	563.60626	196.37965	-531.07977	569.25433	265.64615	
6138	61.370	-435.62418	-1.81238	-601.23700	-59.40623	-7.20697	-429.88150	-680.29559	17.02974	-14.95209	-330.49832	18.75270	82.55500	-92.58102	688.48285	-822.53558	-223.76329	554.63629	-577.15564	-86.71077	559.37109	-501.00839	-653.09088	563.44031	197.08493	-530.55554	569.30206	266.39673	
6139	61.380	-435.89679	-1.95653	-601.58997	-59.96898	-7.00015	-429.67868	-681.24438	17.49405	-14.93229	-331.31131	18.43075	83.07552	-93.37733	688.57104	-822.27332	-223.07697	554.56030	-575.90515	-86.17185	559.36652	-500.37183	-652.61072	563.19019	198.05327	-529.74261	569.29913	267.49100	
6140	61.390	-435.69839	1.19335	-600.03503	-61.40535	-7.16053	-429.43640	-681.75751	17.76690	-14.75913	-331.39960	18.21859	83.31034	-93.96589	688.52417	-822.00836	-222.72551	554.14008	-574.75366	-85.68864	559.59241	-499.59808	-651.94928	562.92474	198.91789	-529.22980	569.21155	268.19110	
6141	61.400	-435.30084	15.11756	-596.51312	-61.87402	-7.48834	-429.22125	-682.27893	17.82188	-14.69494	-332.68234	17.79849	83.17483	-94.42907	688.46252	-821.66498	-221.98471	553.64111	-574.29126	-85.23374	559.50085	-499.16910	-651.81567	562.32709	199.19815	-529.01703	569.05292	268.52921	
6142	61.410	-437.41666	29.70983	-591.74658	-62.34734	-7.63828	-428.82675	-683.40186	18.10309	-14.64870	-333.81503	17.91800	83.10229	-94.73960	688.49048	-821.53741	-221.53465	553.18146	-573.79260	-84.46476	559.32086	-498.34415	-651.49463	562.02362	199.51346	-528.83905	568.95038	268.80707	
6143	61.420	-439.14853	43.98842	-591.60693	-63.28560	-8.12151	-429.09311	-684.04218	18.00532	-14.49235	-334.05499	17.81240	83.06326	-95.16766	688.54504	-821.41766	-221.21051	552.80536	-574.00702	-84.28623	558.99390	-497.94531	-650.96008	561.77570	200.23872	-528.44611	568.86780	269.45123	
6144	61.430	-440.30161	59.61058	-596.00293	-64.68068	-7.94618	-429.26041	-685.04315	18.39256	-14.38843	-335.63458	17.41550	83.21204	-95.65881	688.26373	-821.24194	-221.36041	552.47650	-573.35162	-84.38970	558.74719	-497.67719	-650.63965	561.58215	200.80084	-527.82990	568.95587	270.13840	
6145	61.440	-437.36627	74.52186	-601.58344	-65.42332	-6.99735	-428.83969	-685.71838	18.82309	-14.19153	-336.02188	17.36870	83.61007	-96.12220	687.99652	-821.24054	-221.84256	552.46790	-572.88483	-84.61817	558.50146	-497.53503	-650.27289	561.74677	201.42519	-527.48895	568.84833	270.51947	
6146	61.450	-434.16241	87.98856	-606.07257	-66.43705	-7.26137	-429.13501	-686.28839	19.00668	-13.94575	-336.85129	17.18179	83.54904	-96.50143	687.81799	-821.02588	-222.31299	552.35803	-572.22229	-85.01191	558.55676	-497.34048	-650.00269	561.51678	202.26660	-527.01514	568.41943	271.12381	
6147	61.460	-431.72076	97.93684	-606.18475	-67.80155	-7.22295	-429.32693	-687.80786	19.24286	-13.90000	-337.59872	16.72448	83.68461	-97.06994	687.66962	-820.75641	-222.87018	552.60895	-572.14423	-85.53201	558.69031	-497.29910	-650.02454	561.08563	202.57771	-527.14795	567.93256	271.54034	
6148	61.470	-430.92664	104.65617	-605.17731	-68.49595	-7.23799	-429.30426	-688.34052	18.95551	-13.68141	-338.30487	16.67168	83.59229	-97.22395	687.71497	-820.97797	-223.04503	552.50330	-571.83453	-85.99086	558.95135	-497.08710	-650.38989	560.71747	202.74788	-527.42560	567.74518	272.04437	
6149	61.480	-431.10489	109.50639	-604.23376	-68.98617	-6.97893	-428.76328	-689.38293	19.19267	-13.68546	-339.84189	16.68952	83.74605	-97.37687	687.75934	-820.53766	-223.93250	553.38824	-572.50128	-86.27648	559.02789	-496.89789	-650.68909	560.69318	202.92505	-527.75049	567.78699	272.11951	
6150	61.490	-431.52820	112.73730	-604.69763	-70.55360	-6.98424	-428.75858	-690.13483	19.13490	-13.38411	-341.05124	17.09039	83.68733	-97.65691	687.91882	-820.40649	-224.16379	553.29242	-572.22040	-86.91854	559.13885	-496.68420	-651.41364	560.93823	203.08945	-528.42902	567.90796	272.06110	
6151	61.500	-432.61697	114.98778	-605.74158	-71.36607	-6.53327	-428.55795	-691.21283	19.05596	-13.34538	-341.40152	17.03509	83.62164	-98.02704	687.85706	-820.16522	-224.63065	553.11816	-571.96893	-87.40333	559.22284	-496.60315	-652.05585	561.11792	203.05417	-529.10645	568.21484	272.15991	
6152	61.510	-431.15768	115.27473	-607.93329	-71.94535	-6.65204	-428.75821	-692.03711	19.07167	-13.37670	-342.67932	16.97930	83.81635	-98.55864	687.73236	-820.08923	-225.36153	553.11932	-571.52118	-87.95709	559.29883	-496.54092	-652.92035	561.13110	203.07164	-530.15924	568.28522	272.17151	
6153	61.520	-430.09409	115.26902	-609.63867	-73.45309	-6.75513	-428.98395	-693.18494	18.80524	-13.25136	-343.64563	16.92860	83.72334	-99.20494	687.61926	-820.02423	-225.58350	553.15497	-571.48633	-88.99971	559.49963	-496.60843	-654.10797	561.09265	202.83394	-531.22375	568.24030	272.01047	
6154	61.530	-428.33670	114.88309	-609.53314	-74.40354	-6.54183	-428.74557	-694.27747	18.51377	-13.38394	-344.49765	16.97356	83.90844	-99.52953	687.63068	-819.95728	-226.75856	553.40894	-571.63593	-89.49010	559.67108	-496.63824	-654.96582	561.18732	202.54169	-532.27167	568.03937	271.82898	
6155	61.540	-424.92923	113.73318	-608.23938	-74.99751	-5.93787	-428.27991	-695.18433	18.41080	-13.44924	-346.15433	16.60172	83.83071	-99.31480	688.05402	-819.73749	-227.68930	554.03522	-572.40948	-90.71873	559.99451	-497.15054	-656.03607	561.13861	202.31895	-533.05231	568.16095	271.50641	
6156	61.550	-420.98611	112.05817	-607.24524	-76.45805	-5.90329	-428.70544	-696.29218	18.62177	-13.30531	-346.92267	16.80219	83.80268	-98.50674	688.65082	-819.26501	-229.12743	553.86365	-572.52429	-92.10506	560.15582	-497.71198	-656.78357	561.31177	202.02216	-534.11566	568.45593	271.07007	
